<svg id="Layer_1" data-name="Layer 1" xmlns="http://www.w3.org/2000/svg" viewBox="0 0 4235.63 4617"><defs><style>.cls-1{fill:#1d1d1b;}</style></defs><path class="cls-1" d="M5015.58,3257.17v1269q0,371.31,45.56,467.44t162,153.56q116.45,57.45,426.94,57.37v124.88H3324.71V5204.54q317.25,0,430.31-59.06t158.62-153.56q45.57-94.44,45.57-465.75v-2970q0-371.25-45.57-467.44T3753.33,935.17q-114.75-57.37-428.62-57.38V752.92H5319.33q985.5,0,1414.13,351t428.62,877.5q0,445.5-276.75,762.75t-762.75,432Q5795.21,3257.17,5015.58,3257.17Zm0-2241V2993.92q111.38,6.81,168.75,6.75,411.75,0,634.5-244.69t222.75-757.69q0-509.55-222.75-745.87T5154,1016.17Z" transform="translate(-3324.71 -752.92)"/><path class="cls-1" d="M7560.33,3763.42l-172.12,1606.5H3324.71V5245h151.87q199.13,0,320.63-70.87,87.75-47.25,135-162,37.13-81,37.12-425.25V1576.42q0-351-37.12-438.75T3782,984.1Q3669,918.3,3476.58,918.29H3324.71V793.42H5764.83V918.29H5565.71q-199.12,0-320.63,70.88-87.75,47.31-138.37,162-37.12,81-37.13,425.25v2916q0,351.06,40.5,447.19T5268.71,5083q84.38,30.38,408.37,30.38h381.38q364.5,0,607.5-128.25t420.19-405q177.18-276.69,335.81-816.75Z" transform="translate(-3324.71 -752.92)"/></svg>